ply
format ascii 1.0
comment SB
element vertex 9
property float x
property float y
property float z
property uchar red
property uchar green
property uchar blue
property float quality
element face 18
property list uchar int vertex_indices
end_header
 1.0  0.0 -2.0  255 255 255 0
-1.0  0.0 -1.9  255 255 255 1
 0.0  0.0 -1.0  255 255 255 2
 0.0  1.0  0.9  255 255 255 3
 0.0 -1.0  1.0  255 255 255 4
 1.0  2.0  1.7  255 255 255 5
 1.0 -2.0  1.8  255 255 255 6
-1.0  2.0  1.9  255 255 255 7
-1.0 -2.0  2.0  255 255 255 8
3 0 1 5
3 5 1 7
3 5 7 6
3 6 7 8
3 6 8 0
3 0 8 1
3 1 2 3
3 1 3 7
3 7 3 4
3 7 4 8
3 8 4 2
3 8 2 1
3 2 0 3
3 3 0 5
3 3 5 4
3 4 5 6
3 4 6 2
3 2 6 0